<svg width="67" height="67" viewBox="0 0 67 67" fill="none" xmlns="http://www.w3.org/2000/svg">
<circle cx="33.5" cy="33.5" r="33.5" fill="#1EA56A"/>
<path d="M55.1169 52.1551C54.2243 49.7097 52.5517 48.0898 50.0667 47.323C49.8103 47.2439 49.6653 47.1636 49.6533 46.8677C49.6287 46.5747 49.5766 46.2846 49.4976 46.0014C48.1281 40.2035 42.1529 36.9733 36.5491 38.997C35.7893 39.2869 35.0637 39.6594 34.3852 40.1077C34.3445 40.0693 34.3265 40.0609 34.3265 40.0514C34.3193 39.801 34.3205 39.5505 34.3098 39.3013C34.2199 37.1758 33.9371 35.0862 33.1535 33.0901C32.7653 32.1016 32.0153 31.7721 31.0388 32.1807C30.2576 32.5078 29.4656 32.8325 28.6928 33.1919C28.4232 33.3117 28.3214 33.2686 28.2136 33.0026C27.8541 32.1196 27.4803 31.2413 27.0885 30.3667C26.729 29.5783 26.0329 29.2656 25.2421 29.5603C24.9306 29.6801 24.8563 29.5807 24.7449 29.3207C23.1537 25.5824 21.5534 21.8474 19.9439 18.1156C19.8241 17.852 19.872 17.7166 20.0745 17.5273C20.8138 16.8347 21.3303 15.9379 21.5584 14.9509C21.7865 13.9638 21.7158 12.9313 21.3553 11.9846C20.9767 10.9949 20.2207 10.6666 19.2346 11.0836C17.0515 12.0149 14.8689 12.9543 12.6867 13.9016C11.7401 14.3042 11.4334 15.1094 11.9031 16.02C12.9155 17.9814 14.539 18.9531 16.7496 18.9387C16.9797 18.9387 17.1749 18.8872 17.3067 19.2011C18.9043 22.9833 20.5182 26.7602 22.1485 30.532C22.2312 30.7237 22.2467 30.8184 22.0215 30.9346C21.1444 31.3887 20.9168 32.0681 21.3026 32.9942C21.6549 33.8329 22.0023 34.6717 22.3809 35.5008C22.5079 35.7787 22.4384 35.8734 22.1796 35.98C21.3685 36.3071 20.5525 36.6522 19.7546 37.014C18.9039 37.3986 18.6199 38.1751 18.9926 39.0198C19.2647 39.6372 19.5852 40.2321 19.9511 40.799C21.3278 42.9483 23.0865 44.8273 25.1403 46.3429C25.3152 46.4723 25.5273 46.549 25.2733 46.8593C23.6102 48.8878 23.0267 51.2122 23.5288 53.793C23.7181 54.7647 24.28 55.4608 25.1846 55.8838C25.3943 55.982 25.6435 55.9688 25.8232 56.133H52.8584C52.88 56.1138 52.8991 56.0827 52.9231 56.0791C54.6053 55.8287 55.8035 54.0398 55.1169 52.1551ZM15.5059 15.8007L18.7038 14.4396C18.2137 15.8546 16.7891 16.4393 15.5059 15.8007ZM24.8407 32.8325C24.9522 32.7606 25.0253 32.8121 25.0744 32.9283C25.2661 33.386 25.4578 33.8437 25.6579 34.2978C25.7154 34.4272 25.6735 34.4919 25.556 34.5195C25.4111 34.5542 25.2206 34.7675 25.1355 34.607C24.8767 34.1181 24.6826 33.5945 24.4585 33.0757C24.528 32.9008 24.7161 32.914 24.8407 32.8325ZM22.3989 39.3025C22.2863 39.1336 22.2647 39.0545 22.49 38.9586C25.2138 37.8004 27.9344 36.6354 30.6518 35.4636C30.8064 35.3977 30.8914 35.3642 30.9513 35.5954C31.2556 36.9139 31.4243 38.26 31.4546 39.6128C31.4414 41.1836 31.3587 42.3973 31.0364 43.5847C30.9753 43.81 30.9022 43.9298 30.641 43.9514C29.8056 44.0219 28.9903 44.2462 28.2363 44.6127C28.1375 44.6694 28.0239 44.6949 27.9104 44.6859C27.7969 44.6769 27.6887 44.6339 27.6001 44.5624C25.4901 43.1749 23.7876 41.3909 22.3989 39.3025ZM51.6339 53.2706H39.354C35.1604 53.2706 30.9669 53.2646 26.7662 53.279C26.3995 53.279 26.2965 53.1592 26.2606 52.8165C25.9011 49.4018 28.4735 46.6304 31.8919 46.767L32.1567 46.7766C32.9187 46.8006 33.1476 46.6424 33.404 45.9379C34.1444 43.901 35.5247 42.4632 37.5412 41.6928C41.5706 40.1352 46.1092 42.7927 46.779 47.057C46.8539 47.6256 46.8776 48.1998 46.8497 48.7727C46.8329 49.4988 47.1672 49.8631 47.8909 49.887C49.7767 49.9517 51.2109 50.7605 52.1215 52.4367C52.578 53.2646 52.5744 53.267 51.6315 53.267L51.6339 53.2706Z" fill="white"/>
</svg>
