<svg width="65" height="65" viewBox="0 0 65 65" fill="none" xmlns="http://www.w3.org/2000/svg">
<circle cx="32.5" cy="32.5" r="32.5" fill="#1EA56A"/>
<path d="M19.3828 54.9255C17.8921 54.9713 16.3817 54.6262 14.8671 54.3173C14.6069 54.2641 14.3499 54.1931 14.0938 54.1212C12.8816 53.7802 12.1065 52.9864 11.7968 51.7797C11.4454 50.4015 11.143 49.0051 11.0331 47.5816C10.7999 44.5687 11.4422 41.7817 13.2541 39.317C13.9871 38.3183 14.8607 37.4411 15.7311 36.5644C16.9346 35.3526 18.1381 34.1409 19.3993 32.9864C19.999 32.4364 21.3111 32.3805 21.9451 32.974C22.6909 33.672 23.467 34.337 24.1592 35.0909C24.2848 35.2284 24.2793 35.3201 24.1528 35.4498C23.4505 36.1831 22.7574 36.9219 22.0592 37.6579C20.9647 38.8124 20.7352 40.2244 20.8681 41.7327C20.9139 42.2726 21.0422 42.7996 21.3079 43.2818C21.4453 43.5274 21.6336 43.6993 21.9286 43.7291C22.5008 43.7859 22.9173 43.3239 22.7927 42.763C22.701 42.3546 22.5059 41.9719 22.4756 41.5507C22.3973 40.4508 22.5503 39.4315 23.3777 38.5951C24.0053 37.9608 24.5917 37.2821 25.272 36.7055C26.5319 35.6386 27.652 34.4296 28.8316 33.2815C28.9384 33.1775 29.0456 33.15 29.188 33.1308C29.6599 33.0671 29.9934 33.2417 30.315 33.5891C31.027 34.3636 31.8044 35.0758 32.5214 35.8471C32.7765 36.1221 32.8375 36.42 32.7458 36.7729C32.7055 36.9306 32.6107 37.0424 32.5081 37.1547C31.5602 38.1905 30.561 39.1763 29.571 40.1708C29.4405 40.3014 29.4556 40.3637 29.5761 40.4861C30.6394 41.5686 31.7325 42.6223 32.755 43.7451C33.2195 44.2557 33.483 44.8221 33.3936 45.5325C33.3542 45.8356 33.2332 46.1223 33.0436 46.362C32.5809 46.9711 32.0357 47.5051 31.4956 48.044C30.1373 49.4034 28.8019 50.7879 27.3565 52.056C25.6298 53.5712 23.626 54.502 21.3491 54.8224C20.6974 54.9082 20.04 54.9427 19.3828 54.9255Z" fill="white"/>
<path d="M55.5287 17.8095C55.3913 17.6679 55.2712 17.5079 55.1352 17.3645C54.3206 16.5081 53.501 15.6575 52.6764 14.8126C51.5128 13.6256 50.3263 12.462 49.131 11.308C48.8676 11.0536 48.5881 10.8181 48.3275 10.5605C48.0668 10.3029 47.7745 10.0838 47.3814 10.0706H47.3356C47.2165 10.1091 47.0883 10.1091 46.9691 10.0706H46.9233C46.7227 10.1498 46.5133 10.2025 46.3433 10.3556C44.8805 11.6746 43.475 13.0495 42.1478 14.5019C42.0382 14.629 41.9636 14.7826 41.9316 14.9474C41.8294 15.3764 41.8977 15.781 42.0906 16.1674C42.6467 17.2829 43.2034 18.3989 43.7714 19.5089C43.8553 19.6725 43.8434 19.7591 43.711 19.8911C39.9168 23.6786 36.1251 27.468 32.3358 31.2594C32.2043 31.3909 32.1947 31.4519 32.3326 31.5866C33.0045 32.2414 33.6675 32.9049 34.3217 33.577C34.4688 33.7287 34.5398 33.7145 34.6814 33.5725C38.4618 29.7838 42.2442 25.9951 46.0286 22.2065C46.1596 22.0754 46.2471 22.0585 46.4116 22.1469C46.9939 22.4595 47.5853 22.7555 48.1767 23.0511C48.7411 23.333 49.3014 23.6263 49.8791 23.8761C50.5205 24.1557 51.111 24.0855 51.6456 23.5791C52.8258 22.4618 53.9676 21.307 55.071 20.1148C55.3729 19.7894 55.6996 19.4787 55.8471 19.0401V18.4901C55.8274 18.232 55.7142 17.99 55.5287 17.8095ZM51.844 18.8535C51.3437 19.3577 50.8412 19.8549 50.3441 20.36C50.2667 20.4388 50.2067 20.4443 50.1118 20.3957C49.1306 19.8962 48.1476 19.4 47.1629 18.9071C47.0809 18.8685 47.0148 18.8026 46.976 18.7206C46.4931 17.7481 46.0081 16.7763 45.521 15.8053C45.4724 15.7086 45.4816 15.6504 45.5599 15.5762C46.052 15.098 46.5406 14.6163 47.0259 14.1311C47.1386 14.0175 47.2055 14.0289 47.3141 14.1371C48.8241 15.6425 50.3366 17.1459 51.8518 18.6473C51.8825 18.678 51.91 18.7124 51.9407 18.7477C51.9054 18.7871 51.8761 18.8214 51.844 18.8535Z" fill="white"/>
</svg>
