<svg width="67" height="67" viewBox="0 0 67 67" fill="none" xmlns="http://www.w3.org/2000/svg">
<circle cx="33.5" cy="33.5" r="33.5" fill="#1EA56A"/>
<path d="M29.3136 37.7642C29.3024 36.9507 29.2993 36.1372 29.2817 35.3237C29.2563 34.1636 29.226 33.0041 29.191 31.8451C29.1655 30.9425 29.1305 30.0414 29.0955 29.1387C29.0498 27.9766 29.001 26.8139 28.949 25.6507C28.8885 24.2911 28.8248 22.9316 28.758 21.572C28.7054 20.5101 28.6402 19.4499 28.5813 18.388C28.5447 17.7512 28.5128 17.1287 28.473 16.4999C28.473 16.4171 28.4985 16.3996 28.5669 16.3884C29.6912 16.193 30.8272 16.0728 31.9674 16.0287C32.5087 16.0048 33.05 16.0016 33.5897 16C34.478 16 35.3664 16.0255 36.2515 16.1003C36.9902 16.164 37.7273 16.2595 38.458 16.3869C38.5504 16.4028 38.5695 16.4362 38.5647 16.5222C38.5106 17.4232 38.4575 18.3254 38.4055 19.2286C38.3529 20.1838 38.2956 21.1485 38.2463 22.1101C38.1741 23.562 38.1067 25.0144 38.0441 26.4674C37.9979 27.5372 37.9597 28.607 37.9183 29.6768C37.8748 30.7753 37.8393 31.8749 37.8117 32.9755C37.7878 33.9036 37.7623 34.8317 37.7448 35.7615C37.7241 36.8169 37.7082 37.8724 37.705 38.9295C37.705 38.9374 37.7067 38.9452 37.71 38.9523C37.7133 38.9595 37.7181 38.9658 37.7241 38.9709C37.7639 38.6907 37.8037 38.4121 37.8403 38.1335C37.9422 37.3455 38.0473 36.559 38.1444 35.771C38.2415 34.983 38.3323 34.1933 38.423 33.4037C38.5026 32.7287 38.5795 32.0542 38.6538 31.3803C38.7207 30.7796 38.7854 30.1789 38.8481 29.5781C38.9181 28.9095 38.9897 28.2425 39.0566 27.5738C39.1171 26.98 39.1728 26.3862 39.2301 25.7924C39.3002 25.0494 39.3713 24.3108 39.4435 23.5763C39.5071 22.9045 39.5724 22.2311 39.6329 21.5593C39.6998 20.8206 39.7619 20.0803 39.8255 19.3416C39.8542 19.0232 39.8797 18.7048 39.9051 18.3864C39.9051 18.3195 39.9211 18.2893 40.0038 18.3116C41.2425 18.6377 42.4449 19.0889 43.5922 19.6584C43.6798 19.703 43.6909 19.738 43.6607 19.8256C42.9666 21.8952 42.3377 23.9982 41.798 26.1203C41.6739 26.6138 41.5513 27.109 41.4462 27.6216C41.4892 27.5895 41.5214 27.5451 41.5385 27.4942C42.2406 26.2206 42.8806 24.912 43.4903 23.5906C43.7546 23.0207 44.0125 22.4476 44.2704 21.8729C44.3038 21.7996 44.3261 21.7917 44.3946 21.8379C45.3478 22.4807 46.2403 23.2091 47.0612 24.0141C48.6552 25.5873 49.9737 27.417 50.9616 29.4269C51.845 31.2138 52.5028 33.1037 52.9197 35.053C53.1901 36.292 53.3767 37.5477 53.4785 38.8117C53.4878 38.8667 53.5166 38.9165 53.5597 38.9518C54.1685 39.609 54.7088 40.3265 55.1724 41.093C55.5459 41.6992 55.815 42.3638 55.9684 43.0592C56.0532 43.4771 56.0524 43.9079 55.9659 44.3254C55.8794 44.743 55.7091 45.1387 55.4653 45.4886C54.9868 46.1755 54.3797 46.7632 53.6775 47.2191C52.593 47.944 51.423 48.5322 50.1942 48.9702C48.5794 49.5627 46.9208 50.0285 45.2336 50.3632C44.038 50.61 42.836 50.8074 41.6261 50.9634C40.5531 51.1014 39.4774 51.2075 38.3991 51.2818C37.3208 51.3561 36.2292 51.4092 35.1244 51.441C34.1883 51.4649 33.2506 51.4665 32.3145 51.4522C31.0282 51.432 29.7429 51.372 28.4587 51.2723C27.2981 51.1815 26.1423 51.0605 24.9881 50.9013C23.4773 50.6944 21.9777 50.4237 20.4955 50.0687C18.7642 49.6743 17.0756 49.1118 15.4537 48.3892C14.4518 47.9522 13.5144 47.3801 12.6677 46.6889C12.0764 46.2177 11.5991 45.6191 11.2715 44.9377C10.9551 44.2238 10.9137 43.4181 11.1553 42.6755C11.4279 41.8158 11.8439 41.0084 12.3859 40.2875C12.723 39.8175 13.0888 39.3688 13.4812 38.9439C13.5294 38.8933 13.5581 38.8273 13.5624 38.7576C13.8473 35.4351 14.6402 32.2527 16.1541 29.2677C17.0648 27.4474 18.2481 25.7767 19.6629 24.3134C20.5608 23.39 21.5508 22.561 22.6177 21.8394C22.6973 21.7853 22.7243 21.7917 22.7625 21.8792C23.377 23.2754 24.0234 24.6573 24.7127 26.0184C24.969 26.5231 25.2317 27.0246 25.5087 27.5181L25.5613 27.6152C25.5736 27.5379 25.5648 27.4587 25.5358 27.386C25.0693 25.3052 24.4739 23.2611 23.8339 21.2297C23.6875 20.7617 23.533 20.2952 23.3754 19.8303C23.342 19.7332 23.3563 19.6902 23.4503 19.6441C24.4802 19.134 25.5551 18.7205 26.6613 18.4087C26.8078 18.3657 26.9558 18.3275 27.1119 18.2845C27.1421 18.6395 27.1724 18.9834 27.2026 19.3289C27.2663 20.0755 27.3284 20.8238 27.3952 21.5704C27.4716 22.4088 27.5502 23.2478 27.6308 24.0873C27.7158 24.9714 27.8017 25.855 27.8888 26.738C27.9652 27.5022 28.0432 28.2669 28.1228 29.0321C28.2225 29.9724 28.3239 30.9144 28.4268 31.8579C28.5096 32.6008 28.5951 33.349 28.6832 34.1026C28.7893 34.9877 28.8981 35.8729 29.0095 36.758C29.0987 37.4601 29.1958 38.1622 29.2881 38.8643C29.312 38.8913 29.3056 38.9248 29.3136 38.9582C29.3215 38.5602 29.3263 38.1622 29.3136 37.7642Z" fill="white"/>
</svg>
