<svg width="67" height="67" viewBox="0 0 67 67" fill="none" xmlns="http://www.w3.org/2000/svg">
<circle cx="33.5" cy="33.5" r="33.5" fill="#1EA56A"/>
<path d="M32.5617 33.3856H38.6605C38.842 33.3694 39.024 33.4089 39.1835 33.4992C39.3429 33.5894 39.4726 33.7263 39.5561 33.8924C39.652 34.0686 39.6993 34.2684 39.693 34.4701C39.6866 34.6719 39.6267 34.8681 39.5198 35.0375C39.446 35.1641 39.3424 35.2696 39.2187 35.3446C39.0949 35.4196 38.9548 35.4617 38.8112 35.467C38.6884 35.467 38.655 35.5157 38.655 35.6416C38.655 38.2812 38.655 40.9209 38.655 43.5576C38.6546 43.732 38.6878 43.9048 38.7528 44.066C38.8178 44.2272 38.9131 44.3736 39.0335 44.4968C39.1538 44.62 39.2966 44.7175 39.4539 44.7838C39.6111 44.8501 39.7795 44.8839 39.9495 44.8831H49.6947C49.8119 44.8831 49.8537 44.8574 49.8732 44.7285C49.9041 44.4674 50.031 44.2282 50.2282 44.06C50.4253 43.8918 50.6776 43.8073 50.9334 43.8239C51.189 43.8395 51.4296 43.9528 51.6077 44.1415C51.7859 44.3301 51.8887 44.5804 51.8959 44.8431C51.8959 44.8946 51.8959 44.9461 51.8959 44.9977C51.8959 49.1012 51.8959 53.2047 51.8959 57.3082C51.9206 57.556 51.8599 57.8049 51.7243 58.0115C51.5887 58.2181 51.3869 58.3694 51.1538 58.4391C51.0167 58.4808 50.8724 58.492 50.7306 58.4717C50.5889 58.4514 50.4531 58.4002 50.3323 58.3216C50.2115 58.2429 50.1085 58.1386 50.0303 58.0156C49.9521 57.8927 49.9004 57.754 49.8788 57.6088C49.8565 57.4542 49.8091 57.4199 49.6584 57.4199C46.3719 57.4199 43.0854 57.4485 39.7988 57.4199C38.033 57.4113 36.2862 57.0451 34.6585 56.3424C33.0308 55.6397 31.5543 54.6143 30.3136 53.3249C29.0729 52.0355 28.0924 50.5075 27.4283 48.8284C26.7641 47.1494 26.4295 45.3524 26.4434 43.5404C26.4434 40.9256 26.4434 38.3127 26.4434 35.7017C26.4434 35.5443 26.4183 35.4842 26.2453 35.4641C26.0026 35.4167 25.7851 35.2799 25.6338 35.0793C25.4826 34.8788 25.408 34.6285 25.4241 34.3754C25.4402 34.1224 25.5459 33.8841 25.7214 33.7055C25.8968 33.5269 26.1298 33.4203 26.3765 33.4057C27.0935 33.4057 27.8077 33.4057 28.5247 33.4057L32.5617 33.3856Z" fill="white"/>
<path d="M13.2136 17.7056C13.2136 15.6386 13.2136 13.5716 13.2136 11.5045C13.1999 11.2993 13.2455 11.0944 13.3448 10.9157C13.4441 10.7369 13.5925 10.5922 13.7716 10.4997C13.9118 10.4234 14.0677 10.3826 14.2263 10.3805C14.385 10.3783 14.5418 10.415 14.6839 10.4875C14.826 10.56 14.9492 10.6662 15.0433 10.7972C15.1374 10.9283 15.1998 11.0804 15.2252 11.2412C15.2531 11.4215 15.32 11.4358 15.4623 11.4358C18.707 11.4358 21.9489 11.4358 25.1908 11.4358C28.4249 11.402 31.5577 12.5925 33.9902 14.7797C36.3723 16.8548 37.9551 19.7337 38.4541 22.899C38.5841 23.6608 38.6475 24.4331 38.6438 25.2065C38.6438 27.1705 38.6438 29.1316 38.6438 31.0955C38.6438 31.2587 38.5992 31.2931 38.4457 31.2931C34.5064 31.2931 30.567 31.2931 26.6276 31.2931C26.4491 31.2931 26.4267 31.2329 26.4267 31.0726C26.4267 29.143 26.4267 27.2134 26.4267 25.2838C26.4399 25.0784 26.4029 24.873 26.3191 24.686C26.2353 24.499 26.1073 24.3365 25.9469 24.2131C25.7626 24.0739 25.5421 23.9942 25.3136 23.984C25.2299 23.984 25.1489 23.984 25.0652 23.984H15.4735C15.3256 23.984 15.2503 23.984 15.2224 24.1873C15.1856 24.4421 15.0554 24.673 14.8584 24.8326C14.6613 24.9923 14.4123 25.0686 14.1622 25.0462C13.9101 25.0312 13.6727 24.9196 13.497 24.7335C13.3214 24.5474 13.2202 24.3003 13.2136 24.0413C13.2136 23.964 13.2136 23.8867 13.2136 23.8065V17.7056Z" fill="white"/>
</svg>
