<svg width="65" height="65" viewBox="0 0 65 65" fill="none" xmlns="http://www.w3.org/2000/svg">
<circle cx="32.5" cy="32.5" r="32.5" fill="#1EA56A"/>
<path d="M8.26221 28.7221C8.39637 28.4305 8.38179 28.101 8.44498 27.791C8.59858 27.0358 8.74246 26.2797 8.96509 25.54C8.97939 25.4674 9.01654 25.4013 9.07111 25.3513C9.12568 25.3013 9.19481 25.27 9.26841 25.2621C10.0714 25.1153 10.8842 25.1085 11.694 25.0949C12.916 25.0745 14.1371 25.0842 15.3591 25.0852C15.4855 25.0852 15.573 25.0726 15.6333 24.9316C16.2263 23.536 17.0216 22.254 17.8887 21.0158C17.9385 20.9588 17.9669 20.8862 17.9692 20.8106C17.9715 20.7349 17.9476 20.6608 17.9014 20.6008C16.8434 18.8143 15.9822 16.9184 15.3329 14.9463C15.304 14.8858 15.2968 14.8172 15.3126 14.7521C15.3283 14.6869 15.3661 14.6292 15.4194 14.5886C16.2759 13.7955 17.2063 13.0899 18.1328 12.3873C18.2096 12.3289 18.265 12.3027 18.3564 12.3698C19.9692 13.536 21.5723 14.7247 23.0228 16.0999C23.3728 16.4314 23.3699 16.4401 23.8006 16.2175C25.03 15.5996 26.3295 15.132 27.6708 14.8248C27.9294 14.7636 28.0373 14.644 28.084 14.3835C28.4495 12.3688 28.959 10.3987 29.7202 8.48797C29.797 8.29359 29.8845 8.2343 30.0915 8.24013C31.1784 8.27123 32.2653 8.2829 33.3522 8.33052C33.5992 8.34218 33.6925 8.43548 33.7508 8.65514C34.0872 9.91796 34.3704 11.1915 34.6005 12.4757C34.7279 13.1803 34.8299 13.8888 34.9281 14.5983C34.9285 14.656 34.9506 14.7113 34.9901 14.7533C35.0296 14.7953 35.0835 14.8209 35.141 14.8248C36.6076 15.1521 38.0251 15.6696 39.3574 16.3643C39.5382 16.4615 39.649 16.4411 39.8065 16.3108C41.3856 14.9703 43.0929 13.7886 44.9037 12.7828C45.0446 12.7051 45.136 12.6963 45.2721 12.8032C46.1795 13.5205 47.06 14.2721 47.9135 15.058C48.039 15.1737 48.037 15.2524 47.967 15.3953C47.0541 17.2235 46.151 19.0574 45.0009 20.7544C44.9037 20.8924 44.928 20.9838 45.0116 21.1082C45.6173 22.0179 46.2443 22.9149 46.7275 23.8995C46.9005 24.2513 47.0639 24.609 47.2214 24.9686C47.3079 25.1629 47.4304 25.2417 47.6579 25.2349C48.7788 25.197 49.8939 25.3223 51.0051 25.4293C51.9468 25.5131 52.8834 25.6474 53.8108 25.8316C53.8752 25.8357 53.9359 25.8632 53.9815 25.9088C54.0271 25.9544 54.0546 26.0151 54.0587 26.0795C54.2648 27.1301 54.4476 28.1827 54.5953 29.243C54.6313 29.5103 54.5603 29.6716 54.3329 29.8038C53.5007 30.2897 52.6111 30.6464 51.7138 30.9808C50.8165 31.3151 49.9211 31.6125 49.0257 31.9294C48.9078 31.9722 48.7925 32.0222 48.6806 32.079C48.631 32.1036 48.589 32.1412 48.559 32.1877C48.529 32.2343 48.5123 32.2881 48.5105 32.3434C48.3452 33.8294 48.1352 35.3077 47.7045 36.7461C47.6897 36.7989 47.6911 36.8548 47.7084 36.9068C47.7257 36.9588 47.7583 37.0044 47.8017 37.0377C47.9884 37.2185 48.176 37.3992 48.3734 37.5683C49.7781 38.7884 51.0737 40.1285 52.2456 41.5736C52.3175 41.661 52.3486 41.7242 52.2854 41.837C51.7789 42.7525 51.2715 43.6661 50.692 44.5379C50.3829 45.0034 49.9639 45.0724 49.5099 44.7264C49.361 44.61 49.2212 44.4823 49.0918 44.3445C47.793 42.9906 46.5642 41.5716 45.3159 40.175C44.603 39.3819 43.8959 38.5872 43.1946 37.7909C42.9399 37.5052 42.9331 37.4993 43.1032 37.1495C43.694 35.9484 44.1211 34.6736 44.3729 33.359C44.4636 32.8868 44.5105 32.4073 44.5129 31.9264C44.5226 30.3247 44.4973 28.7191 43.9655 27.1874C42.3128 22.4319 39.0074 19.4695 34.1319 18.2838C32.8564 17.9738 31.5294 17.9922 30.2247 18.1059C26.1591 18.4675 22.9985 20.4269 20.6565 23.7158C19.5752 25.2086 18.852 26.9302 18.543 28.7473C18.356 29.948 18.3129 31.1666 18.4147 32.3774C18.8356 38.0864 23.2911 42.7768 28.6479 43.9236C30.6807 44.3581 32.7125 44.3552 34.7327 43.8216C35.1994 43.6982 35.2072 43.6982 35.4949 44.0918C37.252 46.4937 39.0074 48.8959 40.7612 51.2985C40.8203 51.3712 40.8523 51.4623 40.8516 51.556C40.8468 51.9185 40.8516 52.2811 40.8516 52.6436C40.8591 52.685 40.8511 52.7277 40.829 52.7636C40.8069 52.7995 40.7724 52.8259 40.7321 52.838C39.6212 53.2779 38.4928 53.6667 37.3469 54.0042C37.3007 54.0124 37.2538 54.0157 37.2069 54.014C37.1194 53.9984 37.0796 53.9265 37.0329 53.8643C36.0485 52.5437 35.1751 51.1439 34.4216 49.6793C34.2787 49.3984 34.1154 49.1282 33.9851 48.8415C33.8967 48.6471 33.7625 48.5849 33.5544 48.5878C32.8739 48.5975 32.1992 48.5781 31.5216 48.5956C30.773 48.6141 30.0274 48.545 29.2788 48.5392C29.1689 48.5328 29.0593 48.5565 28.962 48.6079C28.8646 48.6593 28.7832 48.7364 28.7266 48.8308C28.4068 49.2992 28.12 49.7891 27.8079 50.2634C26.9932 51.5016 26.1299 52.7029 25.1276 53.7982C25.0903 53.8493 25.0374 53.8868 24.9769 53.9052C24.9164 53.9236 24.8516 53.9219 24.7922 53.9002C23.7558 53.5231 22.7107 53.1703 21.7007 52.7223C21.4751 52.6251 21.3925 52.4813 21.3896 52.2363C21.375 50.8971 21.6093 49.5869 21.8406 48.2778C21.9486 47.6645 22.0652 47.0532 22.2188 46.4496C22.2801 46.2105 22.2042 46.0609 22.0244 45.9209C21.5383 45.5321 21.024 45.1813 20.5496 44.776C20.0134 44.3371 19.5025 43.8682 19.0194 43.3716C18.7141 43.045 18.4361 42.9274 17.9578 43.1072C16.2214 43.7584 14.421 44.1909 12.5933 44.5097C12.253 44.569 12.0245 44.4796 11.835 44.1861C11.4629 43.6202 11.1225 43.0342 10.8152 42.4308C10.6538 42.1062 10.4691 41.7942 10.3028 41.4725C10.1939 41.2626 10.1949 41.1012 10.3563 40.9175C10.6168 40.6211 10.8949 40.3422 11.1826 40.0739C12.3045 39.0252 13.4527 38.0057 14.6942 37.0979C14.7389 37.0649 14.7778 37.026 14.8225 36.993C15.0169 36.8462 15.0577 36.6752 14.9839 36.4351C14.6403 35.3293 14.4231 34.1881 14.3364 33.0334C14.3208 32.808 14.2917 32.5796 14.2664 32.3531C14.2343 32.0713 14.0846 31.9177 13.8309 31.8263C13.2203 31.5989 12.6137 31.3482 12.0168 31.0799C10.799 30.5417 9.61301 29.9346 8.46442 29.2615C8.38862 29.2191 8.3203 29.1646 8.26221 29.1001V28.7221Z" fill="white"/>
<path d="M50.0523 48.5877C47.3351 45.3863 44.5216 42.2703 41.7304 39.133C40.5211 37.7723 39.31 36.4139 38.0974 35.0578C37.8913 34.8255 37.8933 34.8041 38.1246 34.6078C38.4 34.3847 38.6626 34.1462 38.9111 33.8935C39.1425 33.6562 39.3245 33.3753 39.4465 33.0672C39.5685 32.759 39.6281 32.4297 39.6218 32.0984C39.6218 31.3461 39.4536 30.8835 38.9578 30.313C38.0323 29.2439 37.0436 28.2418 36.0413 27.2466C35.3656 26.5741 34.6938 25.8966 33.9569 25.2902C33.1792 24.6497 31.9328 24.5865 31.0802 25.1259C30.6505 25.3971 30.6408 25.4233 30.9568 25.8062C32.2316 27.3684 33.5081 28.9287 34.7862 30.4869C34.9228 30.6397 35.0418 30.8072 35.141 30.9865C35.3938 31.4929 35.3121 31.9953 34.9028 32.3812C34.6744 32.5979 34.442 32.8117 34.2038 33.0178C33.5087 33.6223 32.8068 34.22 32.0573 34.7565C31.8025 34.9535 31.4802 35.0422 31.1605 35.0033C30.8407 34.9643 30.5492 34.8009 30.3491 34.5485C29.9395 34.0704 29.5383 33.5844 29.1456 33.0907C28.152 31.8434 27.1623 30.5903 26.1765 29.3313C26.055 29.1768 25.9821 29.1963 25.8431 29.308C25.3477 29.7115 25.0149 30.2803 24.9061 30.9098C24.7973 31.5392 24.9198 32.1868 25.251 32.733C26.4283 34.6331 27.6951 36.4729 28.9803 38.3001C29.2351 38.6629 29.5868 38.9468 29.9953 39.1194C30.9538 39.5402 31.8813 39.5733 32.7524 38.892C32.9944 38.7034 33.2589 38.5431 33.4922 38.3458C33.6429 38.2175 33.7061 38.2573 33.8072 38.3973C35.4093 40.6093 37.0141 42.8188 38.6214 45.0257C40.5463 47.6654 42.4576 50.3138 44.436 52.9137C44.7878 53.3749 45.2842 53.7048 45.8457 53.8506C46.289 53.973 46.7362 54.0032 47.1358 53.7096C48.1818 52.9431 49.1955 52.1319 50.1768 51.276C50.3411 51.1388 50.4556 50.9513 50.5024 50.7424C50.6764 49.9571 50.587 49.2175 50.0523 48.5877ZM46.1636 51.2012C45.3907 51.2099 44.2853 50.5373 44.3446 49.3711C44.2844 48.3574 45.2634 47.5244 46.1422 47.539C46.6301 47.5512 47.0945 47.7511 47.4386 48.0971C47.7827 48.4431 47.98 48.9085 47.9893 49.3963C47.983 49.8767 47.7876 50.3352 47.4455 50.6727C47.1034 51.0101 46.6422 51.1993 46.1616 51.1992L46.1636 51.2012Z" fill="#FEFEFE"/>
</svg>
