<svg width="65" height="65" viewBox="0 0 65 65" fill="none" xmlns="http://www.w3.org/2000/svg">
<circle cx="32.5" cy="32.5" r="32.5" fill="#1EA56A"/>
<path d="M47.6203 40.2814C47.4371 39.0733 47.1485 37.8836 46.7577 36.7259C45.8781 34.0184 44.7285 31.4203 43.4906 28.8616C41.7932 25.3495 39.9246 21.9283 37.973 18.5519C35.9836 15.1105 33.9131 11.7187 31.7613 8.37653C31.6441 8.1948 31.6428 8.1948 31.5243 8.37653C29.743 11.1235 28.0223 13.9069 26.3622 16.7267C24.7556 19.4566 23.2017 22.2154 21.7229 25.023C20.5562 27.2445 19.4368 29.4897 18.4308 31.789C17.5709 33.7524 16.7728 35.7396 16.1921 37.8084C15.8339 39.0962 15.5468 40.396 15.564 41.8998C15.5708 42.5393 15.6201 43.1776 15.7114 43.8106C15.9272 45.4609 16.4075 47.0656 17.1337 48.5632C18.5932 51.6067 20.9747 54.1128 23.9398 55.7255C26.905 57.3383 30.303 57.9755 33.651 57.5468C37.2752 57.0991 40.6378 55.4269 43.1818 52.8072C45.7258 50.1875 47.2988 46.7774 47.64 43.1416C47.745 42.1907 47.7384 41.2308 47.6203 40.2814ZM32.0247 51.4576C31.8238 51.4824 31.6214 51.4934 31.419 51.4905C30.0709 51.4577 28.744 51.1475 27.5211 50.5793C26.515 50.1155 25.5936 49.4865 24.7951 48.7185C23.6001 47.5819 22.7114 46.1619 22.2115 44.5902C21.9399 43.7448 21.7857 42.8662 21.7532 41.9789C21.7361 41.514 21.7532 41.0676 21.9376 40.6409C22.0861 40.2642 22.3287 39.9318 22.6423 39.6754C22.9558 39.4191 23.3297 39.2473 23.7285 39.1766C24.0528 39.1086 24.3874 39.1068 24.7124 39.1713C25.0373 39.2357 25.346 39.3651 25.6198 39.5516C25.8936 39.7381 26.1269 39.9779 26.3059 40.2568C26.4848 40.5356 26.6056 40.8476 26.6611 41.1742C26.6894 41.3506 26.704 41.5289 26.7046 41.7076C26.7193 42.835 27.1332 43.9207 27.8727 44.7719C28.5604 45.6003 29.5024 46.1785 30.5525 46.4167C30.9113 46.5057 31.2797 46.5499 31.6494 46.5484C32.2714 46.5488 32.8702 46.784 33.3263 47.2068C33.7824 47.6297 34.0621 48.2091 34.1095 48.8293C34.1569 49.4494 33.9686 50.0646 33.582 50.5519C33.1955 51.0392 32.6394 51.3626 32.0247 51.4576Z" fill="white"/>
</svg>
