<svg width="15" height="26" viewBox="0 0 15 26" fill="none" xmlns="http://www.w3.org/2000/svg">
<path fill-rule="evenodd" clip-rule="evenodd" d="M0.545486 0.545486C0.717961 0.372574 0.922856 0.235387 1.14843 0.141784C1.37401 0.0481801 1.61583 0 1.86006 0C2.10428 0 2.34611 0.0481801 2.57168 0.141784C2.79726 0.235387 3.00215 0.372574 3.17463 0.545486L14.3151 11.6859C14.488 11.8584 14.6252 12.0633 14.7188 12.2889C14.8124 12.5144 14.8605 12.7563 14.8605 13.0005C14.8605 13.2447 14.8124 13.4865 14.7188 13.7121C14.6252 13.9377 14.488 14.1426 14.3151 14.3151L3.17463 25.4555C2.82598 25.8041 2.35312 26 1.86006 26C1.367 26 0.894132 25.8041 0.545486 25.4555C0.19684 25.1068 0.000973908 24.634 0.000973898 24.1409C0.000973888 23.6479 0.19684 23.175 0.545486 22.8263L10.3751 13.0005L0.545486 3.17463C0.372574 3.00215 0.235389 2.79726 0.141785 2.57168C0.0481818 2.34611 0 2.10428 0 1.86006C0 1.61583 0.0481818 1.37401 0.141785 1.14843C0.235389 0.922854 0.372574 0.717961 0.545486 0.545486Z" fill="#1EA56A"/>
</svg>
