<svg width="177" height="57" viewBox="0 0 177 57" fill="none" xmlns="http://www.w3.org/2000/svg">
<path d="M52.1152 3.69968L41.8714 14.3376L28.1324 0L3.85956 24.8529H11.4374V50.4085H0V52.342H30.5716V50.4085H13.3188V22.9231H8.41815L28.1212 2.74408L44.7662 19.7804L46.1084 18.4232L43.1914 15.7171L52.1152 6.45119L63.2849 18.0894L64.6272 16.7322L52.1152 3.69968Z" fill="#0D6B38"/>
<path d="M33.3565 49.9843C33.7051 49.3317 34.2285 48.7892 34.8682 48.4174C35.5079 48.0457 36.2385 47.8595 36.9781 47.8798H44.5633C46.7422 47.8798 48.5121 49.4489 48.5121 51.375C48.5121 53.301 46.7422 54.8701 44.5633 54.8701H36.9781C36.314 54.883 35.6569 54.7328 35.0644 54.4327C34.4719 54.1325 33.962 53.6916 33.5796 53.1486H31.4676C31.9066 54.2451 32.669 55.182 33.6532 55.8349C34.6375 56.4877 35.7972 56.8256 36.9781 56.8036H44.5633C47.7796 56.8036 50.3936 54.3682 50.3936 51.375C50.3936 48.3818 47.7908 45.9463 44.5633 45.9463H36.9781C34.3307 45.9463 32.0142 47.6084 31.3412 49.988L33.3565 49.9843Z" fill="#0D6B38"/>
<path d="M34.1189 50.7912C34.1298 51.3082 34.2604 51.8156 34.5004 52.2737C34.7403 52.7317 35.0832 53.1279 35.5021 53.4312C36.0373 53.8009 36.6735 53.997 37.324 53.9926H44.5226C45.2606 53.9977 45.9772 53.7452 46.549 53.2787C46.8858 52.9982 47.1564 52.6468 47.3415 52.2496C47.5266 51.8523 47.6217 51.4191 47.6199 50.9808C47.6215 50.9435 47.6144 50.9063 47.5992 50.8722C47.584 50.838 47.5611 50.8079 47.5322 50.7841C47.5034 50.7603 47.4695 50.7435 47.4331 50.7351C47.3967 50.7267 47.3588 50.7268 47.3224 50.7354C45.9913 51.0515 42.8605 50.2558 42.8605 50.2558C42.154 50.055 40.8601 50.4156 40.544 50.5086L40.373 50.5569C38.9898 50.8804 37.2311 50.3636 36.8035 50.226C36.7031 50.1963 36.6027 50.1628 36.4986 50.1368C35.8329 49.9375 35.1204 49.9596 34.4684 50.2C34.3558 50.2499 34.2616 50.3336 34.199 50.4396C34.1363 50.5456 34.1083 50.6685 34.1189 50.7912Z" fill="url(#paint0_linear_2_2378)"/>
<path d="M31.7985 20.9532V29.6982H30.5742V22.0401H25.5021V29.6982H24.2653V20.9532H31.7985ZM37.8362 23.0146C38.4775 23.0146 39.0521 23.1561 39.5602 23.4393C40.0682 23.7225 40.4638 24.1181 40.747 24.6261C41.0385 25.1342 41.1843 25.7213 41.1843 26.3876C41.1843 27.0539 41.0385 27.6452 40.747 28.1616C40.4638 28.6697 40.0682 29.0653 39.5602 29.3484C39.0521 29.6316 38.4775 29.7732 37.8362 29.7732C37.3614 29.7732 36.9242 29.6816 36.5244 29.4984C36.133 29.3151 35.7998 29.0486 35.525 28.6988V32.1219H34.3257V23.077H35.475V24.1264C35.7415 23.76 36.0788 23.4851 36.4869 23.3019C36.895 23.1103 37.3448 23.0146 37.8362 23.0146ZM37.7362 28.7238C38.161 28.7238 38.5399 28.628 38.8731 28.4365C39.2145 28.2366 39.4811 27.9617 39.6726 27.6119C39.8725 27.2538 39.9724 26.8457 39.9724 26.3876C39.9724 25.9296 39.8725 25.5256 39.6726 25.1758C39.4811 24.8177 39.2145 24.5428 38.8731 24.3513C38.5399 24.1597 38.161 24.064 37.7362 24.064C37.3198 24.064 36.9408 24.1639 36.5994 24.3638C36.2662 24.5553 35.9997 24.826 35.7998 25.1758C35.6083 25.5256 35.5125 25.9296 35.5125 26.3876C35.5125 26.8457 35.6083 27.2538 35.7998 27.6119C35.9914 27.9617 36.2579 28.2366 36.5994 28.4365C36.9408 28.628 37.3198 28.7238 37.7362 28.7238ZM45.7626 29.7732C45.1046 29.7732 44.5133 29.6274 43.9886 29.3359C43.4639 29.0444 43.0517 28.6447 42.7518 28.1366C42.4603 27.6203 42.3146 27.0373 42.3146 26.3876C42.3146 25.738 42.4603 25.1592 42.7518 24.6511C43.0517 24.1347 43.4639 23.735 43.9886 23.4518C44.5133 23.1603 45.1046 23.0146 45.7626 23.0146C46.4206 23.0146 47.0077 23.1603 47.5241 23.4518C48.0488 23.735 48.4569 24.1347 48.7484 24.6511C49.0482 25.1592 49.1981 25.738 49.1981 26.3876C49.1981 27.0373 49.0482 27.6203 48.7484 28.1366C48.4569 28.6447 48.0488 29.0444 47.5241 29.3359C47.0077 29.6274 46.4206 29.7732 45.7626 29.7732ZM45.7626 28.7238C46.1874 28.7238 46.5663 28.628 46.8995 28.4365C47.2409 28.2366 47.5074 27.9617 47.699 27.6119C47.8906 27.2538 47.9863 26.8457 47.9863 26.3876C47.9863 25.9296 47.8906 25.5256 47.699 25.1758C47.5074 24.8177 47.2409 24.5428 46.8995 24.3513C46.5663 24.1597 46.1874 24.064 45.7626 24.064C45.3378 24.064 44.9547 24.1597 44.6133 24.3513C44.2801 24.5428 44.0136 24.8177 43.8137 25.1758C43.6222 25.5256 43.5264 25.9296 43.5264 26.3876C43.5264 26.8457 43.6222 27.2538 43.8137 27.6119C44.0136 27.9617 44.2801 28.2366 44.6133 28.4365C44.9547 28.628 45.3378 28.7238 45.7626 28.7238ZM57.6148 28.6488V31.2349H56.4905V29.6982H50.9561V31.2349H49.8193V28.6488H50.1691C50.5938 28.6239 50.8853 28.324 51.0436 27.7494C51.2018 27.1747 51.3101 26.3626 51.3684 25.3132L51.4683 23.077H56.6029V28.6488H57.6148ZM52.4678 25.4007C52.4345 26.2335 52.3637 26.9248 52.2554 27.4745C52.1554 28.0159 51.9681 28.4073 51.6932 28.6488H55.4036V24.1264H52.5302L52.4678 25.4007ZM61.5384 23.0146C62.4545 23.0146 63.1541 23.2394 63.6372 23.6892C64.1286 24.1389 64.3743 24.8094 64.3743 25.7005V29.6982H63.2374V28.8237C63.0375 29.1319 62.7502 29.3693 62.3754 29.5358C62.0089 29.6941 61.5717 29.7732 61.0637 29.7732C60.3224 29.7732 59.7269 29.5941 59.2772 29.236C58.8358 28.8779 58.615 28.4073 58.615 27.8243C58.615 27.2413 58.8274 26.7749 59.2522 26.4251C59.6769 26.067 60.3516 25.8879 61.276 25.8879H63.1749V25.6505C63.1749 25.1342 63.025 24.7386 62.7252 24.4637C62.4254 24.1889 61.984 24.0515 61.401 24.0515C61.0095 24.0515 60.6264 24.1181 60.2516 24.2513C59.8768 24.3763 59.5603 24.547 59.3022 24.7636L58.8024 23.8641C59.1439 23.5892 59.552 23.381 60.0267 23.2394C60.5015 23.0895 61.0054 23.0146 61.5384 23.0146ZM61.2635 28.8487C61.7216 28.8487 62.1172 28.7488 62.4504 28.5489C62.7835 28.3407 63.025 28.0492 63.1749 27.6744V26.7499H61.326C60.3099 26.7499 59.8019 27.0914 59.8019 27.7743C59.8019 28.1075 59.931 28.3698 60.1891 28.5614C60.4473 28.7529 60.8055 28.8487 61.2635 28.8487ZM72.5554 26.8998H71.2687V29.6982H70.0694V26.8998H68.7826L66.9586 29.6982H65.5344L67.8081 26.2752L65.7093 23.077H66.9836L68.7701 25.8754H70.0694V23.077H71.2687V25.8754H72.5679L74.3544 23.077H75.6412L73.5424 26.2877L75.8161 29.6982H74.3919L72.5554 26.8998ZM79.3749 23.0146C80.291 23.0146 80.9906 23.2394 81.4737 23.6892C81.9651 24.1389 82.2108 24.8094 82.2108 25.7005V29.6982H81.0739V28.8237C80.874 29.1319 80.5867 29.3693 80.2119 29.5358C79.8455 29.6941 79.4082 29.7732 78.9002 29.7732C78.1589 29.7732 77.5634 29.5941 77.1137 29.236C76.6723 28.8779 76.4516 28.4073 76.4516 27.8243C76.4516 27.2413 76.6639 26.7749 77.0887 26.4251C77.5135 26.067 78.1881 25.8879 79.1125 25.8879H81.0115V25.6505C81.0115 25.1342 80.8615 24.7386 80.5617 24.4637C80.2619 24.1889 79.8205 24.0515 79.2375 24.0515C78.846 24.0515 78.4629 24.1181 78.0881 24.2513C77.7133 24.3763 77.3969 24.547 77.1387 24.7636L76.639 23.8641C76.9804 23.5892 77.3885 23.381 77.8633 23.2394C78.338 23.0895 78.8419 23.0146 79.3749 23.0146ZM79.1001 28.8487C79.5581 28.8487 79.9537 28.7488 80.2869 28.5489C80.62 28.3407 80.8615 28.0492 81.0115 27.6744V26.7499H79.1625C78.1464 26.7499 77.6384 27.0914 77.6384 27.7743C77.6384 28.1075 77.7675 28.3698 78.0257 28.5614C78.2838 28.7529 78.642 28.8487 79.1001 28.8487ZM87.7254 23.077H88.9247V27.8993L92.9849 23.077H94.0718V29.6982H92.8725V24.876L88.8248 29.6982H87.7254V23.077ZM105.664 23.077L102.453 30.3604C102.17 31.035 101.837 31.5097 101.454 31.7846C101.079 32.0594 100.625 32.1968 100.092 32.1968C99.7672 32.1968 99.4507 32.1427 99.1425 32.0344C98.8427 31.9345 98.5928 31.7846 98.393 31.5847L98.9052 30.6852C99.2466 31.01 99.6423 31.1724 100.092 31.1724C100.383 31.1724 100.625 31.0933 100.817 30.935C101.016 30.7851 101.196 30.5228 101.354 30.148L101.566 29.6857L98.6428 23.077H99.8921L102.203 28.374L104.489 23.077H105.664ZM109.595 29.7732C108.92 29.7732 108.316 29.6274 107.783 29.3359C107.258 29.0444 106.846 28.6447 106.546 28.1366C106.246 27.6203 106.097 27.0373 106.097 26.3876C106.097 25.738 106.246 25.1592 106.546 24.6511C106.846 24.1347 107.258 23.735 107.783 23.4518C108.316 23.1603 108.92 23.0146 109.595 23.0146C110.194 23.0146 110.727 23.1353 111.194 23.3768C111.668 23.6184 112.035 23.9682 112.293 24.4262L111.381 25.0134C111.173 24.6969 110.915 24.4596 110.607 24.3013C110.298 24.1431 109.957 24.064 109.582 24.064C109.149 24.064 108.758 24.1597 108.408 24.3513C108.066 24.5428 107.796 24.8177 107.596 25.1758C107.404 25.5256 107.308 25.9296 107.308 26.3876C107.308 26.854 107.404 27.2663 107.596 27.6244C107.796 27.9742 108.066 28.2449 108.408 28.4365C108.758 28.628 109.149 28.7238 109.582 28.7238C109.957 28.7238 110.298 28.6447 110.607 28.4864C110.915 28.3282 111.173 28.0908 111.381 27.7743L112.293 28.349C112.035 28.8071 111.668 29.161 111.194 29.4109C110.727 29.6524 110.194 29.7732 109.595 29.7732ZM118.695 24.1264H116.271V29.6982H115.072V24.1264H112.649V23.077H118.695V24.1264ZM122.283 23.0146C123.199 23.0146 123.898 23.2394 124.381 23.6892C124.873 24.1389 125.118 24.8094 125.118 25.7005V29.6982H123.982V28.8237C123.782 29.1319 123.494 29.3693 123.12 29.5358C122.753 29.6941 122.316 29.7732 121.808 29.7732C121.067 29.7732 120.471 29.5941 120.021 29.236C119.58 28.8779 119.359 28.4073 119.359 27.8243C119.359 27.2413 119.572 26.7749 119.996 26.4251C120.421 26.067 121.096 25.8879 122.02 25.8879H123.919V25.6505C123.919 25.1342 123.769 24.7386 123.469 24.4637C123.17 24.1889 122.728 24.0515 122.145 24.0515C121.754 24.0515 121.371 24.1181 120.996 24.2513C120.621 24.3763 120.305 24.547 120.046 24.7636L119.547 23.8641C119.888 23.5892 120.296 23.381 120.771 23.2394C121.246 23.0895 121.75 23.0146 122.283 23.0146ZM122.008 28.8487C122.466 28.8487 122.861 28.7488 123.195 28.5489C123.528 28.3407 123.769 28.0492 123.919 27.6744V26.7499H122.07C121.054 26.7499 120.546 27.0914 120.546 27.7743C120.546 28.1075 120.675 28.3698 120.933 28.5614C121.192 28.7529 121.55 28.8487 122.008 28.8487ZM127.278 23.077H128.477V25.8879H132.25V23.077H133.45V29.6982H132.25V26.9248H128.477V29.6982H127.278V23.077ZM138.617 29.7732C137.959 29.7732 137.368 29.6274 136.843 29.3359C136.319 29.0444 135.906 28.6447 135.607 28.1366C135.315 27.6203 135.169 27.0373 135.169 26.3876C135.169 25.738 135.315 25.1592 135.607 24.6511C135.906 24.1347 136.319 23.735 136.843 23.4518C137.368 23.1603 137.959 23.0146 138.617 23.0146C139.275 23.0146 139.863 23.1603 140.379 23.4518C140.904 23.735 141.312 24.1347 141.603 24.6511C141.903 25.1592 142.053 25.738 142.053 26.3876C142.053 27.0373 141.903 27.6203 141.603 28.1366C141.312 28.6447 140.904 29.0444 140.379 29.3359C139.863 29.6274 139.275 29.7732 138.617 29.7732ZM138.617 28.7238C139.042 28.7238 139.421 28.628 139.754 28.4365C140.096 28.2366 140.362 27.9617 140.554 27.6119C140.745 27.2538 140.841 26.8457 140.841 26.3876C140.841 25.9296 140.745 25.5256 140.554 25.1758C140.362 24.8177 140.096 24.5428 139.754 24.3513C139.421 24.1597 139.042 24.064 138.617 24.064C138.193 24.064 137.81 24.1597 137.468 24.3513C137.135 24.5428 136.868 24.8177 136.669 25.1758C136.477 25.5256 136.381 25.9296 136.381 26.3876C136.381 26.8457 136.477 27.2538 136.669 27.6119C136.868 27.9617 137.135 28.2366 137.468 28.4365C137.81 28.628 138.193 28.7238 138.617 28.7238ZM148.295 26.2627C149.153 26.4792 149.581 27.0164 149.581 27.8743C149.581 28.4573 149.361 28.907 148.919 29.2235C148.486 29.54 147.837 29.6982 146.97 29.6982H143.785V23.077H146.858C147.641 23.077 148.253 23.2269 148.694 23.5268C149.136 23.8183 149.357 24.2347 149.357 24.776C149.357 25.1258 149.261 25.4298 149.069 25.688C148.886 25.9379 148.628 26.1294 148.295 26.2627ZM144.959 25.9254H146.758C147.216 25.9254 147.562 25.8421 147.795 25.6755C148.037 25.509 148.157 25.2674 148.157 24.9509C148.157 24.318 147.691 24.0015 146.758 24.0015H144.959V25.9254ZM146.883 28.7738C147.383 28.7738 147.758 28.6946 148.007 28.5364C148.257 28.3782 148.382 28.1325 148.382 27.7993C148.382 27.4579 148.266 27.2038 148.032 27.0373C147.807 26.8707 147.449 26.7874 146.958 26.7874H144.959V28.7738H146.883ZM154.032 26.8998H152.658V29.6982H151.459V23.077H152.658V25.8754H154.057L156.206 23.077H157.493L154.982 26.2627L157.668 29.6982H156.256L154.032 26.8998ZM161.164 23.0146C162.08 23.0146 162.78 23.2394 163.263 23.6892C163.754 24.1389 164 24.8094 164 25.7005V29.6982H162.863V28.8237C162.663 29.1319 162.376 29.3693 162.001 29.5358C161.635 29.6941 161.198 29.7732 160.689 29.7732C159.948 29.7732 159.353 29.5941 158.903 29.236C158.462 28.8779 158.241 28.4073 158.241 27.8243C158.241 27.2413 158.453 26.7749 158.878 26.4251C159.303 26.067 159.977 25.8879 160.902 25.8879H162.801V25.6505C162.801 25.1342 162.651 24.7386 162.351 24.4637C162.051 24.1889 161.61 24.0515 161.027 24.0515C160.635 24.0515 160.252 24.1181 159.877 24.2513C159.503 24.3763 159.186 24.547 158.928 24.7636L158.428 23.8641C158.77 23.5892 159.178 23.381 159.653 23.2394C160.127 23.0895 160.631 23.0146 161.164 23.0146ZM160.889 28.8487C161.347 28.8487 161.743 28.7488 162.076 28.5489C162.409 28.3407 162.651 28.0492 162.801 27.6744V26.7499H160.952C159.936 26.7499 159.428 27.0914 159.428 27.7743C159.428 28.1075 159.557 28.3698 159.815 28.5614C160.073 28.7529 160.431 28.8487 160.889 28.8487Z" fill="#1D1D1B"/>
<path d="M46.8825 42.6401C45.9914 42.6401 45.1835 42.4486 44.4589 42.0655C43.7427 41.674 43.1763 41.1368 42.7599 40.4539C42.3518 39.7626 42.1477 38.9839 42.1477 38.1177C42.1477 37.2516 42.3518 36.477 42.7599 35.7941C43.1763 35.1028 43.7427 34.5656 44.4589 34.1825C45.1835 33.791 45.9956 33.5953 46.895 33.5953C47.6529 33.5953 48.3359 33.7286 48.9439 33.9951C49.5602 34.2616 50.0766 34.6447 50.493 35.1444L49.1937 36.3437C48.6024 35.6608 47.8695 35.3193 46.995 35.3193C46.4536 35.3193 45.9706 35.4401 45.5458 35.6816C45.1211 35.9148 44.7879 36.2438 44.5464 36.6686C44.3132 37.0933 44.1966 37.5764 44.1966 38.1177C44.1966 38.6591 44.3132 39.1421 44.5464 39.5669C44.7879 39.9917 45.1211 40.3248 45.5458 40.5663C45.9706 40.7995 46.4536 40.9161 46.995 40.9161C47.8695 40.9161 48.6024 40.5705 49.1937 39.8792L50.493 41.0785C50.0766 41.5866 49.5602 41.9739 48.9439 42.2404C48.3276 42.5069 47.6404 42.6401 46.8825 42.6401ZM58.5832 40.8662V42.4902H51.8121V33.7452H58.4208V35.3693H53.8234V37.2682H57.8836V38.8423H53.8234V40.8662H58.5832ZM68.1884 33.7452V42.4902H66.177V35.3943H62.2293V42.4902H60.2179V33.7452H68.1884ZM77.0399 35.3943H74.2415V42.4902H72.2426V35.3943H69.4567V33.7452H77.0399V35.3943ZM78.3106 33.7452H80.322V39.442L84.4946 33.7452H86.3935V42.4902H84.3947V36.806L80.222 42.4902H78.3106V33.7452ZM91.9565 38.9672H90.5573V42.4902H88.5459V33.7452H90.5573V37.2807H92.0064L94.3051 33.7452H96.4414L93.5805 37.9678L96.5289 42.4902H94.2302L91.9565 38.9672ZM101.613 42.6401C100.705 42.6401 99.8848 42.4444 99.1519 42.053C98.4273 41.6615 97.8568 41.1243 97.4404 40.4414C97.0322 39.7501 96.8282 38.9756 96.8282 38.1177C96.8282 37.2599 97.0322 36.4895 97.4404 35.8065C97.8568 35.1153 98.4273 34.5739 99.1519 34.1825C99.8848 33.791 100.705 33.5953 101.613 33.5953C102.521 33.5953 103.337 33.791 104.062 34.1825C104.786 34.5739 105.357 35.1153 105.773 35.8065C106.19 36.4895 106.398 37.2599 106.398 38.1177C106.398 38.9756 106.19 39.7501 105.773 40.4414C105.357 41.1243 104.786 41.6615 104.062 42.053C103.337 42.4444 102.521 42.6401 101.613 42.6401ZM101.613 40.9161C102.129 40.9161 102.596 40.7995 103.012 40.5663C103.429 40.3248 103.753 39.9917 103.987 39.5669C104.228 39.1421 104.349 38.6591 104.349 38.1177C104.349 37.5764 104.228 37.0933 103.987 36.6686C103.753 36.2438 103.429 35.9148 103.012 35.6816C102.596 35.4401 102.129 35.3193 101.613 35.3193C101.097 35.3193 100.63 35.4401 100.214 35.6816C99.7973 35.9148 99.4684 36.2438 99.2268 36.6686C98.9936 37.0933 98.877 37.5764 98.877 38.1177C98.877 38.6591 98.9936 39.1421 99.2268 39.5669C99.4684 39.9917 99.7973 40.3248 100.214 40.5663C100.63 40.7995 101.097 40.9161 101.613 40.9161ZM114.016 37.9303C114.549 38.0886 114.957 38.3468 115.24 38.7049C115.523 39.063 115.665 39.5044 115.665 40.0291C115.665 40.8037 115.369 41.4075 114.778 41.8406C114.195 42.2737 113.358 42.4902 112.267 42.4902H107.957V33.7452H112.03C113.046 33.7452 113.837 33.9409 114.403 34.3324C114.969 34.7238 115.253 35.2818 115.253 36.0064C115.253 36.4395 115.144 36.8226 114.928 37.1558C114.711 37.4806 114.407 37.7388 114.016 37.9303ZM109.968 37.3682H111.855C112.296 37.3682 112.629 37.2807 112.854 37.1058C113.079 36.9226 113.191 36.6561 113.191 36.3063C113.191 35.9648 113.075 35.7024 112.842 35.5192C112.617 35.336 112.288 35.2444 111.855 35.2444H109.968V37.3682ZM112.192 40.9911C113.141 40.9911 113.616 40.6163 113.616 39.8667C113.616 39.1421 113.141 38.7798 112.192 38.7798H109.968V40.9911H112.192ZM126.663 37.9803H128.512V41.5283C128.037 41.8864 127.487 42.1613 126.863 42.3528C126.238 42.5444 125.609 42.6401 124.976 42.6401C124.068 42.6401 123.252 42.4486 122.528 42.0655C121.803 41.674 121.232 41.1368 120.816 40.4539C120.408 39.7626 120.204 38.9839 120.204 38.1177C120.204 37.2516 120.408 36.477 120.816 35.7941C121.232 35.1028 121.807 34.5656 122.54 34.1825C123.273 33.791 124.097 33.5953 125.014 33.5953C125.78 33.5953 126.475 33.7244 127.1 33.9826C127.725 34.2408 128.249 34.6156 128.674 35.1069L127.375 36.3063C126.75 35.6483 125.996 35.3193 125.114 35.3193C124.556 35.3193 124.06 35.4359 123.627 35.6691C123.194 35.9023 122.856 36.2313 122.615 36.6561C122.373 37.0808 122.253 37.568 122.253 38.1177C122.253 38.6591 122.373 39.1421 122.615 39.5669C122.856 39.9917 123.19 40.3248 123.614 40.5663C124.047 40.7995 124.539 40.9161 125.089 40.9161C125.672 40.9161 126.196 40.7912 126.663 40.5413V37.9803ZM137.163 40.8662V42.4902H130.392V33.7452H137V35.3693H132.403V37.2682H136.463V38.8423H132.403V40.8662H137.163ZM146.793 33.7452V42.4902H145.132L140.772 37.1808V42.4902H138.773V33.7452H140.447L144.795 39.0547V33.7452H146.793ZM155.634 40.8662V42.4902H148.863V33.7452H155.471V35.3693H150.874V37.2682H154.934V38.8423H150.874V40.8662H155.634ZM160.117 42.6401C159.426 42.6401 158.756 42.5485 158.106 42.3653C157.465 42.1737 156.948 41.9281 156.557 41.6282L157.244 40.1041C157.619 40.3789 158.064 40.5996 158.581 40.7662C159.097 40.9328 159.613 41.0161 160.13 41.0161C160.704 41.0161 161.129 40.9328 161.404 40.7662C161.679 40.5913 161.816 40.3623 161.816 40.0791C161.816 39.8709 161.733 39.7002 161.566 39.5669C161.408 39.4253 161.2 39.3129 160.942 39.2296C160.692 39.1463 160.351 39.0547 159.917 38.9547C159.251 38.7965 158.706 38.6383 158.281 38.48C157.856 38.3218 157.49 38.0678 157.181 37.718C156.882 37.3682 156.732 36.9018 156.732 36.3188C156.732 35.8107 156.869 35.3526 157.144 34.9445C157.419 34.5281 157.831 34.1991 158.381 33.9576C158.939 33.7161 159.618 33.5953 160.417 33.5953C160.975 33.5953 161.521 33.6619 162.054 33.7952C162.587 33.9284 163.053 34.12 163.453 34.3699L162.828 35.9065C162.02 35.4484 161.213 35.2194 160.405 35.2194C159.838 35.2194 159.418 35.311 159.143 35.4942C158.876 35.6775 158.743 35.919 158.743 36.2188C158.743 36.5186 158.897 36.7435 159.205 36.8934C159.522 37.035 160.001 37.1766 160.642 37.3182C161.308 37.4764 161.854 37.6347 162.279 37.7929C162.703 37.9512 163.066 38.201 163.365 38.5425C163.674 38.884 163.828 39.3462 163.828 39.9292C163.828 40.4289 163.686 40.887 163.403 41.3034C163.128 41.7115 162.712 42.0363 162.154 42.2779C161.596 42.5194 160.917 42.6401 160.117 42.6401ZM165.211 33.7452H167.234V42.4902H165.211V33.7452ZM172.183 42.6401C171.492 42.6401 170.821 42.5485 170.172 42.3653C169.531 42.1737 169.014 41.9281 168.623 41.6282L169.31 40.1041C169.685 40.3789 170.13 40.5996 170.647 40.7662C171.163 40.9328 171.679 41.0161 172.196 41.0161C172.77 41.0161 173.195 40.9328 173.47 40.7662C173.745 40.5913 173.882 40.3623 173.882 40.0791C173.882 39.8709 173.799 39.7002 173.632 39.5669C173.474 39.4253 173.266 39.3129 173.008 39.2296C172.758 39.1463 172.416 39.0547 171.983 38.9547C171.317 38.7965 170.772 38.6383 170.347 38.48C169.922 38.3218 169.556 38.0678 169.247 37.718C168.948 37.3682 168.798 36.9018 168.798 36.3188C168.798 35.8107 168.935 35.3526 169.21 34.9445C169.485 34.5281 169.897 34.1991 170.447 33.9576C171.005 33.7161 171.683 33.5953 172.483 33.5953C173.041 33.5953 173.587 33.6619 174.12 33.7952C174.653 33.9284 175.119 34.12 175.519 34.3699L174.894 35.9065C174.086 35.4484 173.278 35.2194 172.471 35.2194C171.904 35.2194 171.484 35.311 171.209 35.4942C170.942 35.6775 170.809 35.919 170.809 36.2188C170.809 36.5186 170.963 36.7435 171.271 36.8934C171.588 37.035 172.067 37.1766 172.708 37.3182C173.374 37.4764 173.92 37.6347 174.344 37.7929C174.769 37.9512 175.132 38.201 175.431 38.5425C175.74 38.884 175.894 39.3462 175.894 39.9292C175.894 40.4289 175.752 40.887 175.469 41.3034C175.194 41.7115 174.778 42.0363 174.22 42.2779C173.662 42.5194 172.983 42.6401 172.183 42.6401Z" fill="#0F6B39"/>
<defs>
<linearGradient id="paint0_linear_2_2378" x1="40.2317" y1="54.5578" x2="41.1055" y2="49.6199" gradientUnits="userSpaceOnUse">
<stop stop-color="#99BE22"/>
<stop offset="1" stop-color="#0D6B38"/>
</linearGradient>
</defs>
</svg>
