<svg width="17" height="20" viewBox="0 0 17 20" fill="none" xmlns="http://www.w3.org/2000/svg">
<path fill-rule="evenodd" clip-rule="evenodd" d="M0.029159 7.31632C0.369954 3.18189 3.8249 0 7.9734 0H8.40173C12.5502 0 16.0052 3.18189 16.3459 7.31632C16.5294 9.54235 15.8418 11.7527 14.4279 13.4818L9.6746 19.295C8.90602 20.235 7.46911 20.235 6.70053 19.295L1.94713 13.4818C0.533281 11.7527 -0.154329 9.54235 0.029159 7.31632ZM11.6886 6.97213C11.9791 6.68166 11.9791 6.21072 11.6886 5.92025C11.3981 5.62979 10.9272 5.62979 10.6368 5.92025L7.69166 8.8653L6.23412 7.40783C5.94369 7.11737 5.47274 7.11737 5.18227 7.40783C4.89181 7.6983 4.89181 8.16925 5.18227 8.45968L7.16575 10.4431C7.45622 10.7336 7.92709 10.7336 8.21757 10.4431L11.6886 6.97213Z" fill="#1EA56A"/>
</svg>
