<svg width="19" height="18" viewBox="0 0 19 18" fill="none" xmlns="http://www.w3.org/2000/svg">
<path d="M0.911129 7.17482C3.00714 11.7399 6.73674 15.3694 11.3736 17.337L12.1169 17.6682C13.8175 18.4259 15.8165 17.8503 16.8537 16.3043L17.825 14.8566C18.1409 14.3858 18.0448 13.7518 17.6035 13.3959L14.3094 10.7384C13.8256 10.348 13.1141 10.439 12.7439 10.9384L11.7249 12.3135C9.11001 11.0236 6.98698 8.90068 5.69715 6.28578L7.07219 5.26674C7.57169 4.8966 7.66258 4.18511 7.27223 3.70127L4.61468 0.407041C4.25883 -0.0340357 3.62502 -0.13025 3.15431 0.185365L1.69655 1.16283C0.140907 2.20591 -0.431526 4.22148 0.343629 5.92654L0.910277 7.17297L0.911129 7.17482Z" fill="#1EA56A"/>
</svg>
