<svg width="19" height="19" viewBox="0 0 19 19" fill="none" xmlns="http://www.w3.org/2000/svg">
<circle cx="9.5" cy="9.5" r="9.5" fill="#D62020"/>
<path d="M15.0953 12.9579L11.6372 9.4998L15.0953 6.04168C15.1616 5.97461 15.1988 5.88412 15.1988 5.78984C15.1988 5.69555 15.1616 5.60507 15.0953 5.53799L13.4617 3.9044C13.4287 3.87124 13.3895 3.84494 13.3462 3.82699C13.303 3.80904 13.2567 3.7998 13.2099 3.7998C13.1631 3.7998 13.1168 3.80904 13.0735 3.82699C13.0303 3.84494 12.9911 3.87124 12.9581 3.9044L9.49993 7.36252L6.0418 3.9044C5.975 3.83762 5.88441 3.8001 5.78996 3.8001C5.6955 3.8001 5.60491 3.83762 5.53811 3.9044L3.90452 5.53799C3.87137 5.57102 3.84506 5.61027 3.82711 5.65349C3.80917 5.6967 3.79993 5.74304 3.79993 5.78984C3.79993 5.83663 3.80917 5.88297 3.82711 5.92619C3.84506 5.9694 3.87137 6.00865 3.90452 6.04168L7.36264 9.4998L3.90452 12.9579C3.83774 13.0247 3.80022 13.1153 3.80022 13.2098C3.80022 13.3042 3.83774 13.3948 3.90452 13.4616L5.53811 15.0952C5.57114 15.1284 5.61039 15.1547 5.65361 15.1726C5.69683 15.1906 5.74316 15.1998 5.78996 15.1998C5.83675 15.1998 5.88309 15.1906 5.92631 15.1726C5.96952 15.1547 6.00877 15.1284 6.0418 15.0952L9.49993 11.6371L12.9581 15.0952C13.0249 15.162 13.1154 15.1995 13.2099 15.1995C13.3044 15.1995 13.3949 15.162 13.4617 15.0952L15.0953 13.4616C15.1285 13.4286 15.1548 13.3893 15.1727 13.3461C15.1907 13.3029 15.1999 13.2566 15.1999 13.2098C15.1999 13.163 15.1907 13.1166 15.1727 13.0734C15.1548 13.0302 15.1285 12.991 15.0953 12.9579Z" fill="white"/>
</svg>
