<svg width="21" height="21" viewBox="0 0 21 21" fill="none" xmlns="http://www.w3.org/2000/svg">
<path d="M10.7468 0.00265586C4.78507 -0.127854 0.0044586 4.56919 3.22922e-06 10.2049C-0.00445214 15.7579 4.60196 20.415 10.4977 20.441C16.3713 20.4172 20.9933 15.7973 20.9999 10.2318C21.0066 4.64376 16.3958 0.126661 10.7468 0.00265586ZM10.4746 19.1646C5.40927 19.1372 1.29652 15.1209 1.3081 10.2093C1.31389 5.21826 5.571 1.13735 10.7606 1.2774C15.6032 1.40747 19.6954 5.27463 19.691 10.2401C19.6865 15.1682 15.5181 19.1927 10.4746 19.1646Z" fill="#25A46D"/>
<path d="M14.4154 5.77761C13.5444 4.68281 12.3343 4.2206 10.9531 4.1625C10.0291 4.12391 9.1019 4.14776 8.17652 4.14949C7.65925 4.14949 7.41911 4.39144 7.41688 4.8944C7.41688 5.62239 7.41688 6.35038 7.41688 7.07837C7.41688 7.84929 7.41332 8.62064 7.42 9.39155C7.42 9.53204 7.3848 9.58016 7.2351 9.57366C7.01336 9.56078 6.79091 9.56528 6.56991 9.5871C6.17918 9.63046 5.9426 9.90622 5.96398 10.257C5.98537 10.6078 6.25804 10.8484 6.64788 10.8592C6.85506 10.8649 7.06268 10.8662 7.27164 10.8592C7.3897 10.8549 7.42624 10.8935 7.42089 11.0067C7.41198 11.1862 7.41153 11.367 7.42089 11.5469C7.42713 11.6692 7.38614 11.7108 7.25871 11.7082C7.02201 11.7003 6.78504 11.7057 6.54897 11.7242C6.46568 11.7302 6.38442 11.7522 6.30991 11.7889C6.23539 11.8256 6.1691 11.8764 6.11487 11.9382C6.06063 12 6.01953 12.0717 5.99393 12.149C5.96834 12.2264 5.95877 12.3079 5.96577 12.3889C5.97445 12.5488 6.04592 12.6994 6.1654 12.8094C6.28489 12.9195 6.44326 12.9807 6.60778 12.9803C6.8154 12.9851 7.02347 12.9921 7.23154 12.9777C7.39416 12.9665 7.4249 13.0259 7.42356 13.172C7.41643 13.9577 7.42044 14.7433 7.42044 15.529C7.42044 15.666 7.42044 15.803 7.48549 15.9305C7.55246 16.0603 7.66263 16.1643 7.79805 16.2255C7.93347 16.2866 8.08618 16.3014 8.23132 16.2674C8.51691 16.2058 8.72141 15.9478 8.72409 15.6296C8.72765 14.8079 8.72988 13.9858 8.72141 13.1642C8.72141 13.0085 8.76597 12.9764 8.91879 12.9777C9.68912 12.9856 10.4595 12.9838 11.2298 12.9799C11.317 12.9822 11.4037 12.967 11.4846 12.9352C11.5654 12.9034 11.6387 12.8557 11.6998 12.7951C11.7609 12.7346 11.8085 12.6624 11.8396 12.5831C11.8707 12.5038 11.8847 12.4191 11.8807 12.3343C11.874 11.9519 11.5876 11.7121 11.1104 11.7069C10.5401 11.7008 9.96981 11.7095 9.39952 11.7034C9.17942 11.7013 8.87824 11.7988 8.76151 11.6622C8.65102 11.5322 8.73879 11.2495 8.7223 11.0348C8.71117 10.8887 8.76686 10.8566 8.9072 10.8584C9.49219 10.8662 10.0772 10.8649 10.6622 10.861C11.9177 10.8532 13.0583 10.5245 14.0037 9.68509C15.2098 8.60633 15.3875 6.99989 14.4154 5.77761ZM13.2102 8.66573C12.5864 9.28576 11.7956 9.53767 10.9273 9.56586C10.2545 9.58753 9.58041 9.56586 8.9072 9.57409C8.7428 9.5767 8.71607 9.52206 8.71829 9.37855C8.72587 8.75201 8.72141 8.12548 8.72141 7.49895C8.72141 6.85811 8.72409 6.21727 8.71918 5.57643C8.71918 5.45936 8.74458 5.4121 8.87646 5.4147C9.65258 5.43204 10.4309 5.37568 11.2048 5.45806C11.9649 5.53784 12.656 5.78975 13.2035 6.3339C13.9008 7.02417 13.907 7.97286 13.2102 8.66573Z" fill="#25A46D"/>
</svg>
